<?xml version="1.0" encoding="utf-8"?>
<!-- Generator: Adobe Illustrator 17.0.0, SVG Export Plug-In . SVG Version: 6.00 Build 0)  -->
<!DOCTYPE svg PUBLIC "-//W3C//DTD SVG 1.1//EN" "http://www.w3.org/Graphics/SVG/1.1/DTD/svg11.dtd">
<svg version="1.1" id="Layer_1" xmlns="http://www.w3.org/2000/svg" xmlns:xlink="http://www.w3.org/1999/xlink" x="0px" y="0px"
	 width="250px" height="250px" viewBox="0 0 250 250" enable-background="new 0 0 250 250" xml:space="preserve">
<g>
	<circle fill="#F5F9F4" cx="125" cy="125.054" r="118.479"/>
	<g>
		<g>
			<path fill="#0069B4" d="M0,125.005C0,193.946,56.081,250,125,250c68.919,0,125-56.054,125-124.995C250,56.074,193.919,0,125,0
				C56.081,0,0,56.074,0,125.005 M6.996,125.005C6.996,59.917,59.914,6.966,125,6.966c65.066,0,118.004,52.951,118.004,118.039
				c0,65.068-52.938,118.029-118.004,118.029C59.914,243.034,6.996,190.073,6.996,125.005"/>
		</g>
		<g>
			<path fill="#0069B4" d="M29.963,159.711l0.73-2.383c-1.622-4.766-2.89-9.653-3.792-14.632l-1.075,2.261
				c0.608,3.012,1.338,6.023,2.231,8.974l-0.345,0.101c-0.771-1.278-1.703-2.778-2.758-4.441c-0.639-0.882-1.501-2.018-2.616-3.468
				l-1.643,2.657c0.639,3.64,0.02,6.52-1.916,8.751l-0.892,1.805l10.768-3.448L29.963,159.711z M21.335,155.939
				c0.76-1.521,1.186-3.346,1.369-5.516c1.146,1.501,2.15,2.88,2.981,4.218L21.335,155.939z"/>
		</g>
		<g>
			<path fill="#0069B4" d="M30.652,157.217c-0.122-0.649-0.507-1.551-0.953-2.778l-0.74,2.332c0.071,0.243,0.112,0.365,0.152,0.466
				c0.274,0.781,0.213,1.541-0.152,2.292c-0.152,0.294-0.416,0.517-0.791,0.669l-7.473,2.697c-0.274,0.892-0.446,1.754-0.669,2.626
				l10.606-4.076c0.507,1.247,0.953,2.535,1.541,3.782l0.578-2.444l-0.811-2.008c0.071-0.172,0.132-0.304,0.183-0.395
				c0.213-0.284,0.507-0.537,0.902-0.771l0.253-1.298c-1.125,0.426-2.099,0.842-2.981,1.318
				C30.733,158.94,30.865,158.119,30.652,157.217"/>
		</g>
		<g>
			<path fill="#0069B4" d="M31.479,171.191c0.588,0.112,1.075,0.101,1.45-0.112c0.639-0.284,1.044-0.882,1.206-1.744
				c0.172-0.872,0.061-1.724-0.334-2.636c-0.334-0.801-0.933-1.399-1.714-1.856c-0.801-0.426-1.47-0.537-2.089-0.304
				c-0.669,0.274-1.115,0.852-1.288,1.744c-0.173,0.913-0.051,1.815,0.355,2.788c0.284,0.588,0.558,1.055,0.872,1.318
				C30.394,170.776,30.911,171.029,31.479,171.191 M24.99,178.289l1.308-0.7c0.659-3.387,1.146-5.536,1.247-6.581
				c0.253-1.866,0.467-3.407,0.568-4.654l-2.646,1.136c-0.091,3.701-0.112,6.348-0.223,7.838
				C25.162,176.302,25.04,177.286,24.99,178.289 M32.513,168.971c-0.294,0.122-0.507,0.213-0.609,0.193
				c-0.233-0.02-0.568-0.233-1.034-0.629c-0.446-0.416-0.74-0.781-0.872-1.024c-0.162-0.385-0.061-0.639,0.294-0.76
				c0.436-0.172,0.882-0.132,1.318,0.122c0.629,0.436,1.024,0.831,1.176,1.217C32.98,168.484,32.888,168.778,32.513,168.971"/>
		</g>
		<g>
			<path fill="#0069B4" d="M44.178,185.814l-0.061-2.565c-3.326-4.593-6.246-9.491-8.75-14.601l-0.375,2.545
				c1.703,3.285,3.579,6.53,5.627,9.633l-1.43,0.953l0.02-0.304l0.112-0.669c-0.02-0.487-0.172-1.004-0.467-1.551
				c-0.172-0.304-0.436-0.548-0.831-0.771c-0.395-0.223-0.76-0.345-1.075-0.365l0.071-0.294c0.061-1.044-0.183-2.008-0.72-3.001
				c-0.527-0.913-1.247-1.501-2.18-1.785c-0.801-0.233-1.552-0.203-2.241,0.162c-0.852,0.416-1.349,1.176-1.45,2.2
				c-0.111,1.004,0.203,2.17,0.902,3.448c0.639,1.105,1.43,1.663,2.322,1.663c0.294,0,0.598-0.284,0.892-0.842
				c0.406-0.7,0.355-1.389-0.091-2.14c-0.264-0.487-0.608-0.842-1.034-1.095c-0.395-0.223-0.791-0.223-1.146-0.03
				c-0.122,0.071-0.244,0.193-0.355,0.345c-0.162-0.75-0.01-1.247,0.487-1.521c0.406-0.203,0.872-0.182,1.379,0.101
				c0.517,0.294,0.923,0.69,1.247,1.267c0.375,0.69,0.558,1.339,0.517,1.916c0.03,0.162-0.051,0.507-0.183,1.095
				c-0.081,0.294-0.294,0.406-0.659,0.406l1.146,1.065c0.497-0.446,0.842-0.669,1.095-0.669c0.253,0.03,0.487,0.182,0.639,0.446
				c0.203,0.335,0.314,0.71,0.314,1.126c-0.02,0.456-0.132,0.74-0.334,0.872l-4.938,3.265l0.091,2.697l9.075-6.277
				C42.545,183.665,43.397,184.729,44.178,185.814"/>
		</g>
		<g>
			<path fill="#0069B4" d="M44.158,183.299c-0.365-0.578-0.933-1.369-1.734-2.403l-0.051,2.494c0.132,0.152,0.223,0.294,0.304,0.375
				c0.467,0.659,0.659,1.389,0.527,2.211c-0.061,0.324-0.253,0.619-0.568,0.882l-6.357,4.756l0.122,2.707l8.933-6.986l2.585,3.174
				c-0.081-0.811-0.111-1.683-0.152-2.515l-1.349-1.673c0-0.203,0.02-0.345,0.051-0.456c0.122-0.304,0.334-0.649,0.598-0.994
				l-0.112-1.278c-0.922,0.7-1.744,1.389-2.433,2.109C44.735,184.871,44.624,184.101,44.158,183.299"/>
		</g>
		<g>
			<path fill="#0069B4" d="M53.832,196.816l-0.375-2.423c-2.586-2.586-4.918-5.405-7.199-8.284l0.122,2.505
				c0.791,1.044,1.642,2.038,2.525,3.001c-2.383-0.254-4.238,0.111-5.566,1.227c-1.602,1.288-2.18,3.093-1.653,5.384
				c0.193,0.72,0.609,1.521,1.359,2.312c0.598,0.618,1.237,1.044,1.967,1.247c0.69,0.213,1.247,0.112,1.643-0.274
				c0.416-0.426,0.487-1.024,0.162-1.734c-0.081-0.345-0.223-0.649-0.547-0.973c-0.244-0.254-0.507-0.446-0.862-0.598
				c-0.872-0.446-1.491-0.436-1.845,0.071c-0.071,0.132-0.101,0.385-0.132,0.74c-0.051,0.345-0.081,0.548-0.051,0.527
				c-0.061,0.041-0.172-0.02-0.335-0.213c0.436,0.325,0.669,0.416,0.69,0.274l-0.152-0.172c-0.152-0.193-0.264-0.324-0.304-0.416
				c-0.558-1.673-0.325-2.941,0.7-3.823c0.304-0.254,0.74-0.558,1.298-0.892c1.795-1.055,3.752-0.74,6.216,0.659
				C52.25,195.427,53.01,196.056,53.832,196.816"/>
		</g>
		<g>
			<path fill="#0069B4" d="M64.031,205.708l-0.73-2.444c-4.086-3.194-7.929-6.723-11.448-10.556l0.355,2.494l0.913,0.963
				l-4.167,4.137l0.588,3.032c2.22-0.649,4.522-0.375,6.976,0.781c-0.7,0.446-1.318,0.963-1.866,1.572
				c-0.649,0.761-1.389,2.099-2.18,4.005l1.024,1.612c0.689-1.491,1.115-2.271,1.217-2.363l0.537-0.781
				c0.933-1.115,2.586-1.937,4.837-2.505c-0.426-1.034-0.892-2.028-1.278-3.052c-1.683-0.821-3.133-1.349-4.299-1.653
				c-1.105-0.254-1.936-0.446-2.504-0.548l2.646-2.717C57.582,200.577,60.756,203.193,64.031,205.708"/>
		</g>
		<g>
			<path fill="#0069B4" d="M76.587,213.867l-1.075-2.312l-1.166-0.649c-0.203-0.203-0.335-0.436-0.355-0.669l0.152-0.233
				c0.061-0.203,0.081-0.385,0.061-0.558c-0.162-0.416-0.385-0.913-0.71-1.592l-1.146,2.18l-1.024,2.19l-0.051-0.456
				c-0.385-2.038-0.811-3.265-1.399-3.671c-0.111-0.071-0.324-0.193-0.659-0.314c-1.227-0.497-2.281-0.588-3.133-0.365
				c0.03-0.254-0.03-0.548-0.122-0.862c-0.02-0.02-0.132-0.314-0.314-0.892c-0.294-0.578-0.72-1.065-1.288-1.521l-2.869-2.302
				l0.639,2.434c1.298,1.044,1.734,1.328,1.267,0.994c0.446,0.355,0.771,0.72,0.943,1.136c0.081,0.345,0.132,0.619,0.132,0.831
				c-0.608-0.193-1.227-0.253-1.866-0.182c-0.75,0.071-1.227,0.264-1.5,0.598c-0.284,0.345-0.355,0.791-0.264,1.318
				c0.111,0.507,0.426,0.963,0.953,1.338c0.385,0.284,0.811,0.477,1.308,0.598c0.517,0.122,0.933,0.162,1.318,0.071
				c0.162,0.862,0.608,1.541,1.349,2.028c0.892,0.639,1.622,0.771,2.17,0.497c0.355-0.243,0.537-0.426,0.619-0.558
				c0.335-0.537,0.081-1.572-0.71-3.052c0.244-0.182,0.669-0.091,1.288,0.213c0.416,0.223,0.689,0.821,0.892,1.734
				c0.152,0.801,0.182,1.318,0.03,1.541l-3.589,5.587l1.197,2.494l5.647-9.45C74.366,212.64,75.492,213.239,76.587,213.867"/>
		</g>
		<g>
			<path fill="#0069B4" d="M91.152,219.871c-0.781-0.852-1.734-1.521-2.859-1.967c-2.19-0.801-4.177-0.852-6.175,0.091
				c-0.274,0.122-0.466,0.294-0.537,0.487c-0.132,0.233-0.071,0.537,0.162,0.913c0.203,0.365,0.537,0.608,0.933,0.71
				c1.064,0.213,1.693,0.324,1.764,0.385c0.426,0.152,0.537,0.487,0.345,1.004c-0.111,0.203-0.203,0.324-0.355,0.365l-1.998,0.416
				c0.761,0.649,1.582,1.227,2.373,1.805c2.048-0.456,4.036-0.953,6.023-1.551c0.385,0.436,0.629,1.136,0.75,2.119l-1.916,5.141
				c0.659,0.943,1.288,1.632,1.815,2.079l3.235-10.322c1.308,0.345,2.616,0.801,3.955,1.166l-1.491-1.927
				c-0.193-0.081-0.558-0.223-1.136-0.385c-0.334-0.101-0.598-0.182-0.801-0.243l-0.314-0.284c-0.132-0.162-0.132-0.406-0.071-0.76
				l-0.081-0.213l-1.004-1.095l-0.953,3.661l-0.203,1.065C92.348,221.565,91.852,220.642,91.152,219.871 M85.221,219.344
				c0.811-0.365,1.794-0.294,2.981,0.193c0.558,0.193,1.024,0.608,1.501,1.166l-3.295,0.771
				C86.538,220.52,86.163,219.81,85.221,219.344"/>
		</g>
		<g>
			<path fill="#0069B4" d="M110.818,225.146l-1.845-1.744c-4.725-0.801-9.46-1.856-14.043-3.346l1.541,2.008
				c2.799,0.831,5.668,1.531,8.507,2.089l-0.061,0.355c-2.91,0.051-6.043,0.426-9.48,1.004l1.612,2.667
				c1.318,0.406,2.525,0.963,3.589,1.754c0.882,0.598,1.602,1.288,2.099,2.068c0.091,0.112,0.507,0.913,1.298,2.332l1.055,0.953
				l1.906-10.728L110.818,225.146z M100.526,232.721c0.416-0.253,0.619-0.578,0.568-0.953c-0.041-0.314-0.223-0.588-0.547-0.882
				c-0.335-0.274-0.7-0.497-1.136-0.568c-0.487-0.142-0.943-0.142-1.359,0.03c-0.375,0.152-0.649,0.385-0.73,0.71
				c-0.091,0.325,0.041,0.69,0.355,1.044c0.284,0.365,0.75,0.618,1.308,0.74C99.573,233.015,100.08,232.964,100.526,232.721
				 M103.619,231.058c-0.923-1.48-2.353-2.728-4.32-3.955c1.703-0.324,3.438-0.588,5.242-0.649L103.619,231.058z"/>
		</g>
		<g>
			<path fill="#0069B4" d="M111.089,226.695c0.994,0.345,1.612,0.548,1.764,0.669c0.801,0.487,1.217,1.105,1.278,1.825
				c-0.213-0.071-0.456-0.122-0.77-0.162c-0.953-0.122-1.785-0.03-2.444,0.233c-0.73,0.274-1.136,0.71-1.247,1.349
				c-0.02,0.101,0,0.264,0.051,0.477c0.041,0.223,0.061,0.365,0.041,0.477c0.537,0.771,1.369,1.186,2.586,1.328
				c1.156,0.142,2.099-0.061,2.869-0.619c0.436,0.193,1.095,0.619,1.997,1.227c0.639,0.426,1.186,1.298,1.602,2.636l1.247,0.994
				l0.477-11.042l4.279,0.101l-2.048-1.541c-5.313-0.122-10.646-0.659-15.899-1.612l1.673,1.673l0.243,0.497
				c0.294,0.395,0.548,0.679,0.801,0.791h-0.02C109.78,226.158,110.298,226.391,111.089,226.695 M118.125,232.445
				c-0.781-0.76-1.42-1.338-1.896-1.734c0.081-0.395,0-1.055-0.264-1.987c-0.142-0.578-0.568-1.156-1.227-1.775
				c-0.243-0.253-0.902-0.76-1.886-1.501c1.886,0.254,3.792,0.436,5.678,0.527L118.125,232.445z"/>
		</g>
		<g>
			<path fill="#0069B4" d="M122.62,224.651c-0.69-0.132-1.663-0.091-2.971-0.091l1.957,1.531h0.466
				c0.842,0.03,1.551,0.324,2.109,0.943c0.243,0.233,0.334,0.578,0.334,0.973l-0.01,7.929c0.72,0.558,1.45,1.034,2.211,1.531
				l-0.162-11.347c1.369-0.03,2.717-0.02,4.076-0.142l-2.058-1.369l-2.19,0.041l-0.314-0.294c-0.172-0.304-0.314-0.679-0.395-1.115
				l-1.126-0.669c0,1.186,0.061,2.271,0.183,3.235C124.253,225.148,123.533,224.753,122.62,224.651"/>
		</g>
		<g>
			<path fill="#0069B4" d="M131.948,229.236c-0.274-0.365-0.395-0.72-0.426-1.055c-0.051-0.406,0.193-0.842,0.639-1.278
				c0.436-0.446,1.004-0.7,1.724-0.73c0.811-0.091,1.612,0.081,2.393,0.537c0.903,0.558,1.43,1.278,1.531,2.079l0.72,5.851
				c0.862,0.436,1.734,0.882,2.616,1.268l-1.582-10.84c1.43-0.233,2.809-0.416,4.198-0.69c-0.76-0.324-1.521-0.72-2.291-1.105
				l-1.663,0.264c-0.416-0.122-0.659-0.223-0.75-0.294c-0.152-0.112-0.304-0.274-0.436-0.537c-0.061-0.172-0.314-0.385-0.75-0.659
				l-0.75-0.446c0.112,1.622,0.233,2.738,0.406,3.326c0.132,0.497,0.274,0.973,0.375,1.389c-0.72-0.821-1.46-1.389-2.19-1.663
				c-0.162-0.091-0.517-0.203-1.014-0.314c-0.325-0.071-0.71-0.071-1.126-0.051c-1.622,0.091-2.829,0.578-3.65,1.501
				c-0.71,0.72-1.065,1.511-1.024,2.444c0.031,0.831,0.395,1.562,1.136,2.109c0.771,0.629,1.825,0.923,3.164,0.923
				c0.791,0,1.551-0.172,2.241-0.548c0.639-0.406,0.983-0.872,0.923-1.369c-0.031-0.213-0.101-0.365-0.254-0.558
				c-0.446-0.598-1.095-0.801-2.008-0.75c-1.146,0.081-1.663,0.477-1.632,1.146l0.051,0.456
				C132.302,229.561,132.12,229.449,131.948,229.236"/>
		</g>
		<g>
			<path fill="#0069B4" d="M140.148,236.984c1.835,0.497,3.316,1.075,4.35,1.714c0.152,0.101,0.314,0.122,0.487,0.101
				c0.253-0.071,0.395-0.162,0.477-0.345l-0.041-0.213c-0.416-0.781-1.349-1.43-2.768-1.947c-0.355-0.243-0.862-0.416-1.541-0.639
				l-0.122-0.385l-0.051-0.335c-0.091-0.294-0.304-0.639-0.669-0.983c-0.456-0.365-0.872-0.558-1.288-0.517
				c-0.081,0.01-0.213,0.091-0.355,0.182c0.03,0.284,0.091,0.517,0.122,0.72c0.122,0.395,0.162,0.649,0.192,0.74
				c-0.922-0.243-1.673-0.324-2.312-0.243c-0.923,0.081-1.683,0.406-2.322,0.821c-0.598,0.446-0.841,0.963-0.659,1.551
				c0.152,0.477,0.598,0.811,1.339,1.034c0.639,0.182,1.359,0.193,2.15,0.112c0.639-0.061,1.186-0.243,1.693-0.527
				c0.152-0.091,0.588-0.416,1.267-0.923C140.056,236.934,140.087,236.984,140.148,236.984 M138.018,236.346
				c0.041,0.071-0.162,0.172-0.588,0.345c-0.416,0.172-0.801,0.284-1.105,0.294c-0.405,0.061-0.619-0.01-0.639-0.223
				c-0.02-0.193,0.335-0.365,1.055-0.466C137.379,236.204,137.805,236.214,138.018,236.346"/>
		</g>
		<g>
			<path fill="#0069B4" d="M165.703,217.661l-2.464-0.558l-1.227,0.507c-0.325,0.051-0.578,0-0.761-0.101l-0.101-0.274
				c-0.122-0.203-0.254-0.314-0.406-0.406c-0.406-0.101-0.973-0.233-1.673-0.375l1.034,2.241l1.105,2.129l-0.405-0.193
				c-1.866-0.994-3.103-1.45-3.782-1.197c-0.102,0.071-0.345,0.162-0.639,0.324c-1.116,0.73-1.876,1.409-2.2,2.271
				c-0.183-0.172-0.446-0.335-0.73-0.426c-0.051,0-0.335-0.112-0.913-0.304c-0.629-0.111-1.288-0.051-1.987,0.101l-3.569,0.872
				l2.322,0.953c1.592-0.395,2.099-0.517,1.541-0.375c0.558-0.132,1.044-0.132,1.46-0.061c0.335,0.172,0.598,0.294,0.761,0.416
				c-0.527,0.365-0.953,0.852-1.308,1.369c-0.395,0.588-0.527,1.126-0.416,1.521c0.111,0.416,0.395,0.771,0.872,1.014
				c0.487,0.253,1.034,0.274,1.663,0.081c0.436-0.122,0.862-0.345,1.257-0.69c0.426-0.324,0.669-0.659,0.821-0.994
				c0.811,0.436,1.633,0.507,2.484,0.193c1.014-0.355,1.582-0.831,1.683-1.44c0.02-0.436-0.02-0.69-0.071-0.831
				c-0.203-0.598-1.176-1.034-2.849-1.278c0.02-0.314,0.345-0.608,0.973-0.892c0.426-0.203,1.055-0.071,1.906,0.375
				c0.761,0.365,1.166,0.659,1.267,0.913l2.22,6.246l2.717,0.547l-4.076-10.231C163.401,218.654,164.567,218.188,165.703,217.661"/>
		</g>
		<g>
			<path fill="#0069B4" d="M177.012,209.639l-1.247-0.791c-1.349-0.162-2.383-0.182-3.103-0.132
				c-2.302,0.182-4.238,0.649-5.861,1.46c-0.649,0.314-1.156,0.71-1.582,1.095c-0.659,0.608-1.115,1.156-1.399,1.602
				c-0.264,0.436-0.507,1.085-0.73,1.866c-0.081,0.284-0.071,0.629,0.081,1.034c0.091,0.213,0.294,0.385,0.588,0.466l0.892,0.233
				c-1.125,0.517-2.312,0.953-3.478,1.409l2.444,0.629l1.815-0.781l3.792,8.659l2.667,0.385l-4.563-9.907
				c1.267-0.527,2.454-1.176,3.681-1.785l-2.444-0.406l-2.363,1.105l-0.771-0.477c-0.061-0.101,0-0.446,0.213-1.004
				c0.182-0.456,0.345-0.831,0.507-1.126c0.831-1.004,1.633-1.754,2.494-2.18c1.602-0.76,3.113-1.247,4.755-1.217
				C174.609,209.801,175.775,209.71,177.012,209.639"/>
		</g>
		<g>
			<path fill="#0069B4" d="M186.981,204.923h-2.454c-5.668,4.228-11.732,7.889-18.211,10.799c0.842,0.152,1.714,0.335,2.555,0.436
				C175.28,213.055,181.364,209.293,186.981,204.923 M187.894,211.372c0.061-0.781-0.112-1.409-0.548-1.896
				c-0.456-0.426-1.014-0.629-1.785-0.629c-0.761,0-1.45,0.284-2.15,0.771c-0.639,0.456-1.105,1.085-1.419,1.947
				c-0.314-0.406-0.507-0.608-0.568-0.679c-0.994-0.487-2.119-0.375-3.377,0.274c-2.18,1.237-3.447,2.677-3.823,4.583
				c-0.111,0.639,0.02,1.126,0.416,1.521c0.578,0.537,1.399,0.537,2.464-0.091c0.984-0.517,1.288-1.085,0.913-1.693
				c-0.243-0.395-0.628-0.568-1.196-0.568c0.081-0.213,0.203-0.446,0.395-0.75c0.081-0.172,0.324-0.416,0.73-0.781
				c0.325-0.304,0.598-0.527,0.842-0.669l0.406-0.213c0.943-0.274,1.49-0.294,1.663-0.071c0.111,0.193,0.05,0.446-0.173,0.791
				c-0.446,0.091-0.841,0.253-1.156,0.466c-0.477,0.274-0.77,0.598-0.913,1.034c-0.172,0.416-0.152,0.781,0.02,1.085
				c0.517,0.842,1.339,0.872,2.515,0.182c0.365-0.243,0.669-0.548,0.913-0.902c0.487,0.051,0.74,0.264,0.821,0.608
				c0.203,0.791-0.274,1.541-1.46,2.281c-1.034,0.629-2.211,0.973-3.498,0.973c-0.132,0-0.558-0.041-1.318-0.091
				c-1.46-0.152-2.961-0.862-4.563-2.231c-0.497-0.446-0.842-0.7-0.983-0.7l-1.764,0.233c2.18,2.15,4.096,3.478,5.688,3.985
				c2.21,0.659,3.964,0.831,5.212,0.497c1.024-0.253,1.866-0.69,2.565-1.136c1.642-1.196,2.383-2.464,2.231-3.721
				c-0.02-0.395-0.102-0.7-0.314-0.973c-0.375-0.619-1.065-0.923-1.947-0.943v-0.03c-0.223-0.274-0.162-0.76,0.192-1.491
				c0.355-0.7,0.74-1.196,1.207-1.531c0.172-0.112,0.365-0.183,0.547-0.223c0.588-0.264,1.034-0.152,1.369,0.365
				c0.192,0.253,0.264,0.416,0.192,0.507l-0.527-0.162c-0.365,0.02-0.7,0.112-1.034,0.345c-0.395,0.264-0.71,0.608-0.882,1.044
				c0.031,0.416,0.112,0.71,0.172,0.882c0.203,0.274,0.558,0.406,1.095,0.385c0.517-0.02,1.034-0.182,1.45-0.487
				C187.295,212.944,187.741,212.203,187.894,211.372"/>
		</g>
		<g>
			<path fill="#0069B4" d="M204.54,187.475l-2.403,0.649c-3.975,4.827-8.406,9.359-13.222,13.375l2.484-0.203
				c2.22-1.937,4.34-3.924,6.317-6.023l0.334,0.314c-1.602,2.728-2.89,5.405-3.843,8.203c1.014-0.041,2.069-0.041,3.113-0.111
				c1.034-0.852,2.17-1.491,3.377-1.957c0.547-0.223,1.217-0.395,2.068-0.517c0.68-0.071,1.227-0.112,1.582-0.051
				c0.193,0.01,0.659,0.142,1.399,0.355l1.379-0.345l-6.337-5.891c0.7-0.831,1.551-1.328,2.525-1.602
				c0.892-0.213,1.541-0.132,1.987,0.253c0.041,0.03,0.112,0.193,0.142,0.436c0.365-0.406,0.477-0.659,0.345-0.73
				c-0.071-0.071-0.132-0.071-0.243-0.02c-0.649,0.172-1.176,0.456-1.551,0.902c-0.183,0.243-0.406,0.537-0.619,0.872
				c-0.122,0.74-0.061,1.267,0.304,1.592c0.294,0.254,0.69,0.324,1.237,0.182c0.537-0.162,1.004-0.477,1.42-0.923
				c0.547-0.649,0.852-1.308,0.831-2.058c-0.02-0.649-0.274-1.176-0.73-1.572c-0.203-0.152-0.456-0.314-0.801-0.456
				c-0.872-0.345-1.856-0.325-3.072-0.03c-1.288,0.355-2.332,0.953-3.164,1.896l-0.223-0.213
				C201.031,191.754,202.826,189.655,204.54,187.475 M199.429,196.905l3.163,3.072c-1.602,0-3.265,0.466-5.11,1.318
				c0.294-0.821,0.477-1.318,0.548-1.551C198.354,199.014,198.78,198.041,199.429,196.905"/>
		</g>
		<g>
			<path fill="#0069B4" d="M210.767,175.159l-1.481-0.162c-1.288,0.517-2.2,0.973-2.808,1.339c-1.886,1.278-3.447,2.565-4.461,4.076
				c-0.456,0.548-0.75,1.136-0.892,1.683c-0.294,0.882-0.426,1.592-0.477,2.109c-0.01,0.497,0.051,1.156,0.193,1.957
				c0.061,0.304,0.233,0.608,0.547,0.882c0.223,0.142,0.446,0.182,0.77,0.142l0.903-0.233l-2.383,2.91l2.423-0.618l1.267-1.541
				l7.422,5.891l2.515-0.933l-8.69-6.611c0.801-1.085,1.673-2.15,2.423-3.306l-2.383,0.801l-1.551,2.089l-0.892-0.071
				c-0.111-0.051-0.213-0.395-0.274-0.963c-0.081-0.497-0.112-0.913-0.112-1.227c0.233-1.298,0.669-2.292,1.186-3.103
				c1.014-1.48,2.241-2.545,3.61-3.306C208.668,176.366,209.753,175.788,210.767,175.159"/>
		</g>
		<g>
			<path fill="#0069B4" d="M209.364,183.434c0.75-0.76,1.217-1.176,1.399-1.278c0.831-0.456,1.551-0.548,2.22-0.274
				c-0.142,0.152-0.335,0.355-0.477,0.608c-0.558,0.811-0.872,1.572-0.953,2.261c-0.091,0.76,0.122,1.359,0.659,1.734
				c0.102,0.071,0.223,0.112,0.426,0.182c0.203,0.051,0.365,0.101,0.456,0.183c0.892-0.132,1.693-0.71,2.373-1.704
				c0.649-0.943,0.882-1.916,0.74-2.849c0.355-0.294,1.034-0.69,2.028-1.217c0.669-0.375,1.663-0.446,3.042-0.233l1.45-0.649
				l-9.602-5.455c0.689-1.237,1.389-2.484,2.008-3.762l-2.281,1.136c-2.504,4.664-5.435,9.187-8.669,13.395l2.261-0.69h0.537
				c0.497-0.101,0.852-0.223,1.105-0.345l-0.01,0.02C208.32,184.377,208.725,184.033,209.364,183.434 M217.699,179.804
				c-1.034,0.345-1.836,0.629-2.413,0.882c-0.335-0.254-0.963-0.466-1.916-0.669c-0.568-0.142-1.278-0.041-2.109,0.284
				c-0.314,0.132-1.044,0.487-2.2,0.984c1.095-1.572,2.038-3.214,3.072-4.796L217.699,179.804z"/>
		</g>
		<g>
			<path fill="#0069B4" d="M220.966,157.137l-2.079,1.44l-0.446,1.247c-0.183,0.274-0.355,0.446-0.578,0.477l-0.294-0.101
				c-0.183-0.01-0.345,0-0.517,0.061c-0.385,0.213-0.882,0.527-1.46,0.923l2.363,0.771l2.332,0.639l-0.426,0.142
				c-2.018,0.69-3.113,1.349-3.387,2.008c-0.061,0.122-0.122,0.365-0.213,0.71c-0.274,1.278-0.203,2.302,0.213,3.133
				c-0.253,0.02-0.497,0.142-0.791,0.294c-0.05,0-0.324,0.162-0.872,0.456c-0.507,0.375-0.953,0.882-1.267,1.531
				c-0.537,1.105-1.166,2.15-1.754,3.235l2.281-1.085c0.771-1.45,0.994-1.937,0.74-1.43c0.254-0.487,0.568-0.852,0.943-1.095
				c0.355-0.111,0.598-0.223,0.801-0.294c-0.081,0.629-0.03,1.267,0.152,1.916c0.203,0.69,0.466,1.115,0.852,1.308
				c0.395,0.223,0.831,0.243,1.328,0.051c0.487-0.182,0.892-0.598,1.176-1.176c0.223-0.416,0.345-0.882,0.365-1.409
				c0.041-0.497-0.041-0.943-0.183-1.288c0.821-0.304,1.399-0.852,1.774-1.673c0.477-0.984,0.477-1.744,0.101-2.231
				c-0.314-0.304-0.537-0.466-0.679-0.507c-0.598-0.254-1.511,0.203-2.839,1.247c-0.254-0.233-0.223-0.649,0-1.328
				c0.142-0.456,0.618-0.831,1.5-1.166c0.781-0.304,1.288-0.416,1.521-0.304l6.135,2.525L230,164.55l-10.292-3.863L220.966,157.137z
				"/>
		</g>
		<g>
			<path fill="#0069B4" d="M226.749,153.187c0.578-0.507,1.136-0.882,1.734-1.105c0.598-0.274,1.349-0.436,2.18-0.548
				c0.963-0.193,1.703-0.203,2.21-0.101l0.335,0.101l1.359-0.953l-11.042-2.545l0.852-4.066l-1.876,1.785
				c-1.105,5.111-2.606,10.17-4.451,15.058l2.058-1.389c1.146-3.083,2.099-6.226,2.9-9.4l4.391,1.115l-0.274,0.122
				c-1.937,0.933-3.164,2.292-3.762,4.127c-0.314,0.994-0.314,1.957-0.152,2.87c0.223,0.872,0.659,1.45,1.349,1.663
				c1.369,0.527,2.504-0.274,3.133-2.352c0.233-0.73,0.274-1.328,0.122-1.815c-0.132-0.527-0.395-0.811-0.831-0.943l-0.487-0.091
				c-0.304,0.02-0.689,0.183-1.146,0.406C225.634,154.414,226.11,153.816,226.749,153.187"/>
		</g>
		<g>
			<path fill="#0069B4" d="M37.52,125.005c0,48.226,39.23,87.498,87.474,87.498c48.234,0,87.464-39.272,87.464-87.498
				c0-48.225-39.23-87.467-87.464-87.467C76.75,37.538,37.52,76.78,37.52,125.005 M41.88,125.005
				c0-45.832,37.293-83.117,83.114-83.117c45.831,0,83.124,37.285,83.124,83.117c0,45.822-37.293,83.127-83.124,83.127
				C79.173,208.132,41.88,170.827,41.88,125.005"/>
		</g>
		<g>
			<path fill="#0069B4" d="M86.914,25.902c-0.213,0.041-0.375,0.183-0.548,0.314c0,0-5.861,5.993-6.084,6.206
				c-0.233,0.152-8.091,4.979-8.649,5.334c-0.639,0-9.663,0.203-9.663,0.203c-0.274,0-0.558,0.112-0.74,0.274l-7.949,5.82
				c-0.304,0.233-0.477,0.558-0.517,0.933c0,0-0.831,8.477-0.892,9.248c-0.487,0.558-4.826,5.405-5.283,5.932
				c-0.71,0.162-6.023,1.541-6.023,1.541c-0.264,0.051-0.466,0.193-0.639,0.345l-6.185,6.429c-0.243,0.233-0.365,0.558-0.365,0.902
				v0.071c0,0,0.406,8.092,0.446,8.893c-0.416,0.618-4.249,6.266-4.796,7.078c-0.913,0.142-5.029,0.75-5.029,0.75
				c-0.477,0.071-0.892,0.395-1.034,0.842l-3.032,8.66c-0.051,0.122-0.071,0.274-0.071,0.446c0,0.152,0.051,0.314,0.091,0.487
				c0,0,2.687,6.287,2.9,6.834c-0.02,0.578-0.547,7.838-0.547,7.838l2.606,0.193l0.588-8.173v-0.071
				c0-0.183-0.041-0.365-0.101-0.527c0,0-2.494-5.82-2.849-6.652c0.284-0.781,2.22-6.216,2.616-7.412
				c1.156-0.142,4.816-0.7,4.816-0.7c0.355-0.051,0.689-0.254,0.892-0.558l5.364-7.929c0.152-0.223,0.233-0.477,0.233-0.73V78.63
				c0,0-0.416-7.737-0.456-8.73c0.68-0.7,5.09-5.283,5.536-5.749c0.659-0.172,6.064-1.562,6.064-1.562
				c0.264-0.051,0.477-0.182,0.639-0.375l5.85-6.53c0.172-0.213,0.304-0.477,0.335-0.771c0,0,0.76-8.081,0.872-9.075
				c0.791-0.608,6.54-4.837,7.118-5.242c0.76-0.03,9.612-0.233,9.612-0.233c0.233,0,0.477-0.071,0.669-0.193l9.095-5.607
				c0.081-0.061,0.172-0.112,0.254-0.203c0,0,5.516-5.628,5.952-6.064c0.578-0.172,10.403-3.153,10.403-3.153l-0.73-2.505
				L86.914,25.902z"/>
		</g>
		<g>
			<path fill="#0069B4" d="M24.958,103.348c1.338-1.43,1.166-1.643,0.872-3.792c-0.284-2.19-1.511-7.94,9.683-10.525
				c1.115,6.51-0.892,10.14-6.51,12.614c-2.008,1.176-3.985,4.228-3.985,4.228L24.958,103.348z"/>
		</g>
		<g>
			<path fill="#0069B4" d="M35.474,76.344c1.642-1.044,1.541-1.298,1.774-3.478c0.213-2.19,0.355-8.061,11.853-7.94
				c-0.467,6.601-3.245,9.653-9.278,10.728c-2.22,0.679-4.877,3.174-4.877,3.174L35.474,76.344z"/>
		</g>
		<g>
			<path fill="#0069B4" d="M54.862,52.975c1.785-0.831,1.693-1.105,2.21-3.235c0.497-2.16,2.95-9.177,14.337-7.554
				c-1.308,6.449-6.003,10.373-12.137,10.627c-2.292,0.395-5.252,2.545-5.252,2.545L54.862,52.975z"/>
		</g>
		<g>
			<path fill="#0069B4" d="M80.647,34.468c5.952,0.395,16.436,3.377,23.118-5.313c-7.736-2.748-11.438-1.775-15.777,1.531
				c-4.37,3.295-7.412,3.204-7.412,3.204L80.647,34.468z"/>
		</g>
		<g>
			<path fill="#0069B4" d="M96.024,23.427c5.556-4.005,9.176-8.903,19.711-3.559c-3.437,4.604-9.876,6.236-18.413,4.948
				C94.98,24.33,96.024,23.427,96.024,23.427"/>
		</g>
		<g>
			<path fill="#0069B4" d="M23.037,87.366c0.73-2.961-2.941-5.557-0.903-10.272c2.048-4.664,7.098-6.206,7.098-6.206
				c2.748,7.747,0.71,9.704-3.022,13.324c-1.237,0.72-2.363,2.809-2.363,2.809L23.037,87.366z"/>
		</g>
		<g>
			<path fill="#0069B4" d="M38.633,63.877c1.338-4.512,1.409-4.664,1.572-8.518c0.172-3.843,3.356-8.244,9.653-8.345
				c0.659,6.145-1.227,9.319-5.638,12.107c-2.616,1.338-4.583,3.924-4.583,3.924L38.633,63.877z"/>
		</g>
		<g>
			<path fill="#0069B4" d="M61.972,38.35c0,0,3.275-3.508,3.498-3.853c3.681-7.027,9.633-8.507,14.641-6.936
				c-4.583,7.027-5.638,9.248-14.55,8.832c-1.886,2.129-2.616,2.606-2.616,2.606L61.972,38.35z"/>
		</g>
		<g>
			<path fill="#0069B4" d="M160.803,25.902c0.213,0.041,0.405,0.183,0.558,0.314c0,0,5.84,5.993,6.074,6.206
				c0.264,0.152,8.091,4.979,8.679,5.334c0.639,0,9.673,0.203,9.673,0.203c0.243,0,0.527,0.112,0.73,0.274l7.949,5.82
				c0.304,0.233,0.477,0.558,0.507,0.933c0,0,0.821,8.477,0.892,9.248c0.497,0.558,4.837,5.405,5.283,5.932
				c0.69,0.162,6.033,1.541,6.033,1.541c0.244,0.051,0.446,0.193,0.619,0.345l6.185,6.429c0.243,0.233,0.355,0.558,0.355,0.902
				v0.071c0,0-0.395,8.092-0.446,8.893c0.426,0.618,4.269,6.266,4.806,7.078c0.902,0.142,5.029,0.75,5.029,0.75
				c0.487,0.071,0.882,0.395,1.034,0.842l3.032,8.66c0.041,0.122,0.091,0.274,0.091,0.446c0,0.152-0.051,0.314-0.112,0.487
				c0,0-2.667,6.287-2.92,6.834c0.051,0.578,0.588,7.838,0.588,7.838l-2.626,0.193l-0.588-8.173v-0.071
				c0-0.183,0.041-0.365,0.102-0.527c0,0,2.484-5.82,2.839-6.652c-0.284-0.781-2.19-6.216-2.606-7.412
				c-1.166-0.142-4.816-0.7-4.816-0.7c-0.355-0.051-0.69-0.254-0.882-0.558l-5.374-7.929c-0.152-0.223-0.223-0.477-0.223-0.73V78.63
				c0,0,0.375-7.737,0.436-8.73c-0.659-0.7-5.09-5.283-5.536-5.749c-0.629-0.172-6.043-1.562-6.043-1.562
				c-0.244-0.051-0.487-0.182-0.669-0.375l-5.84-6.53c-0.183-0.213-0.294-0.477-0.314-0.771c0,0-0.781-8.081-0.862-9.075
				c-0.811-0.608-6.571-4.837-7.149-5.242c-0.76-0.03-9.612-0.233-9.612-0.233c-0.243,0-0.456-0.071-0.659-0.193l-9.095-5.607
				c-0.091-0.061-0.182-0.112-0.264-0.203c0,0-5.485-5.628-5.921-6.064c-0.629-0.172-10.433-3.153-10.433-3.153l0.76-2.505
				L160.803,25.902z"/>
		</g>
		<g>
			<path fill="#0069B4" d="M222.769,103.348c-1.349-1.43-1.186-1.643-0.882-3.792c0.294-2.19,1.521-7.94-9.673-10.525
				c-1.115,6.51,0.882,10.14,6.51,12.614c2.008,1.176,3.985,4.228,3.985,4.228L222.769,103.348z"/>
		</g>
		<g>
			<path fill="#0069B4" d="M212.253,76.344c-1.643-1.044-1.521-1.298-1.754-3.478c-0.233-2.19-0.386-8.061-11.853-7.94
				c0.416,6.601,3.235,9.653,9.278,10.728c2.19,0.679,4.867,3.174,4.867,3.174L212.253,76.344z"/>
		</g>
		<g>
			<path fill="#0069B4" d="M192.855,52.975c-1.754-0.831-1.663-1.105-2.18-3.235c-0.527-2.16-2.981-9.177-14.347-7.554
				c1.298,6.449,6.002,10.373,12.127,10.627c2.292,0.395,5.273,2.545,5.273,2.545L192.855,52.975z"/>
		</g>
		<g>
			<path fill="#0069B4" d="M167.08,34.468c-5.952,0.395-16.416,3.377-23.098-5.313c7.716-2.748,11.417-1.775,15.767,1.531
				c4.35,3.295,7.392,3.204,7.392,3.204L167.08,34.468z"/>
		</g>
		<g>
			<path fill="#0069B4" d="M151.702,23.427c-5.567-4.005-9.177-8.903-19.711-3.559c3.447,4.604,9.896,6.236,18.423,4.948
				C152.737,24.33,151.702,23.427,151.702,23.427"/>
		</g>
		<g>
			<path fill="#0069B4" d="M224.699,87.366c-0.74-2.961,2.93-5.557,0.892-10.272c-2.028-4.664-7.098-6.206-7.098-6.206
				c-2.758,7.747-0.71,9.704,3.022,13.324c1.247,0.72,2.353,2.809,2.353,2.809L224.699,87.366z"/>
		</g>
		<g>
			<path fill="#0069B4" d="M209.084,63.877c-1.308-4.512-1.399-4.664-1.562-8.518c-0.172-3.843-3.336-8.244-9.632-8.345
				c-0.659,6.145,1.206,9.319,5.607,12.107c2.636,1.338,4.583,3.924,4.583,3.924L209.084,63.877z"/>
		</g>
		<g>
			<path fill="#0069B4" d="M185.784,38.35c0,0-3.275-3.508-3.539-3.853c-3.68-7.027-9.653-8.507-14.651-6.936
				c4.593,7.027,5.658,9.248,14.57,8.832c1.886,2.129,2.616,2.606,2.616,2.606L185.784,38.35z"/>
		</g>
		<g>
			<path fill="#0069B4" d="M90.399,58.447c-12.319,6.723-6.357,40.499,13.557,76.881c15.27,27.956,34.667,49.392,48.264,53.377
				c3.549,1.024,6.641,0.872,9.176-0.507c12.309-6.773,6.357-40.529-13.546-76.922c-15.301-27.936-34.697-49.381-48.285-53.346
				C96.006,56.906,92.913,57.048,90.399,58.447 M152.97,186.19c-12.766-3.742-31.991-25.157-46.733-52.119
				C87.661,100.163,80.999,66.57,91.646,60.719c1.886-1.044,4.319-1.105,7.189-0.254c12.968,3.772,31.737,24.701,46.723,52.079
				c18.545,33.948,25.247,67.522,14.571,73.362C158.253,186.941,155.809,187.042,152.97,186.19"/>
		</g>
		<g>
			<path fill="#0069B4" d="M90.399,58.447c-12.319,6.723-6.357,40.499,13.557,76.881c15.27,27.956,34.667,49.392,48.264,53.377
				c3.549,1.024,6.641,0.872,9.176-0.507c12.309-6.773,6.357-40.529-13.546-76.922c-15.301-27.936-34.697-49.381-48.285-53.346
				C96.006,56.906,92.913,57.048,90.399,58.447 M152.97,186.19c-12.766-3.742-31.991-25.157-46.733-52.119
				C87.661,100.163,80.999,66.57,91.646,60.719c1.886-1.044,4.319-1.105,7.189-0.254c12.968,3.772,31.737,24.701,46.723,52.079
				c18.545,33.948,25.247,67.522,14.571,73.362C158.253,186.941,155.809,187.042,152.97,186.19"/>
		</g>
		<g>
			<path fill="#0069B4" d="M153.103,58.273c-13.658,3.813-33.339,25.005-49.004,52.748c-15.655,27.723-23.625,55.547-19.833,69.175
				c0.983,3.59,2.778,6.104,5.272,7.514c12.228,6.905,37.76-15.991,58.14-52.099c15.655-27.733,23.645-55.557,19.853-69.185
				c-0.994-3.579-2.768-6.104-5.293-7.514C159.754,57.503,156.662,57.279,153.103,58.273 M90.826,185.428
				c-1.886-1.055-3.225-3.052-4.025-5.942c-3.579-12.807,4.471-40.428,19.569-67.177c15.361-27.175,34.413-47.881,47.423-51.521
				c2.869-0.781,5.272-0.649,7.189,0.395c1.856,1.065,3.225,3.072,4.025,5.942c3.62,13.02-4.258,40.012-19.6,67.228
				C126.405,167.997,101.411,191.39,90.826,185.428"/>
		</g>
		<g>
			<path fill="#0069B4" d="M55.906,114.834c-2.626,2.616-3.955,5.425-3.955,8.294c-0.041,14.044,32.416,25.117,73.887,25.208
				c31.868,0.071,60.006-6.591,70.034-16.569c2.626-2.616,3.955-5.384,3.955-8.284c0.02-2.88-1.318-5.668-3.904-8.284
				c-9.988-10.028-38.094-16.842-69.973-16.913C94.102,98.214,65.965,104.876,55.906,114.834 M125.839,145.71
				c-38.662-0.061-71.301-10.424-71.281-22.582c0.02-2.14,1.085-4.299,3.204-6.398c9.43-9.4,37.455-15.899,68.188-15.828
				c30.733,0.071,58.728,6.703,68.117,16.153c2.109,2.099,3.164,4.299,3.164,6.429c0,2.15-1.075,4.33-3.184,6.439
				C184.597,139.301,156.561,145.801,125.839,145.71"/>
		</g>
		<g>
			<path fill="#0069B4" d="M136.018,124.074c0,5.476-4.431,9.917-9.917,9.917c-5.465,0-9.916-4.441-9.916-9.917
				c0-5.475,4.451-9.927,9.916-9.927C131.587,114.147,136.018,118.599,136.018,124.074"/>
		</g>
		<g>
			<path fill="#0069B4" d="M91.024,72.81c0,3.326-2.697,6.023-6.013,6.023s-5.992-2.697-5.992-6.023
				c0-3.306,2.677-5.993,5.992-5.993S91.024,69.504,91.024,72.81"/>
		</g>
		<g>
			<path fill="#0069B4" d="M191.885,112.31c0,3.285-2.677,5.993-5.992,5.993c-3.326,0-6.013-2.707-6.013-5.993
				c0-3.326,2.687-6.003,6.013-6.003C189.208,106.307,191.885,108.984,191.885,112.31"/>
		</g>
		<g>
			<path fill="#0069B4" d="M106.253,184.775c0,3.306-2.687,5.993-6.013,5.993c-3.305,0-5.992-2.687-5.992-5.993
				c0-3.326,2.687-6.003,5.992-6.003C103.566,178.772,106.253,181.449,106.253,184.775"/>
		</g>
		<g>
			<path fill="#0069B4" d="M233.779,124.42c-0.781,0.122-1.866,0.416-3.265,0.902c1.328,0.639,2.738,1.065,4.279,1.349
				c0.872,0.172,1.308,0.73,1.308,1.663c0,1.237-0.608,1.835-1.785,1.835c-1.064,0-1.764-0.477-2.099-1.45
				c-0.122-0.365-1.004-1.136-2.596-2.342c0.243,1.126,0.507,2.809,0.781,5.019c0,0.487-0.172,0.882-0.477,1.257
				c-0.304,0.385-0.71,0.568-1.166,0.568c-0.983,0-1.612-0.507-1.825-1.45c-0.183-0.801-0.041-1.501,0.395-1.998
				c0.284-0.345,0.558-1.47,0.831-3.397c-1.288,0.811-2.454,1.856-3.468,3.103c-0.294,0.345-0.72,0.507-1.267,0.507
				c-1.156,0-1.754-0.618-1.754-1.866c0-0.578,0.284-1.065,0.831-1.46c0.537-0.385,1.116-0.547,1.714-0.436
				c0.345,0.051,1.45-0.324,3.265-1.085c-1.328-0.72-2.809-1.247-4.401-1.531c-0.862-0.183-1.278-0.73-1.278-1.704
				c0-0.466,0.173-0.902,0.507-1.278c0.335-0.335,0.75-0.527,1.267-0.527c1.034,0,1.734,0.487,2.089,1.46
				c0.112,0.223,0.953,1.034,2.555,2.332c-0.061-0.7-0.233-1.551-0.446-2.525c-0.335-1.45-0.507-2.393-0.507-2.768
				c0-0.507,0.203-0.923,0.548-1.247c0.385-0.304,0.811-0.466,1.267-0.466c1.186,0,1.805,0.69,1.805,2.038
				c0,0.558-0.172,1.014-0.467,1.369c-0.294,0.335-0.527,1.612-0.74,3.802c1.288-0.7,2.515-1.703,3.66-3.022
				c0.355-0.304,0.75-0.446,1.267-0.446c1.156,0,1.744,0.588,1.744,1.805C236.354,123.568,235.492,124.227,233.779,124.42"/>
		</g>
		<g>
			<path fill="#0069B4" d="M26.562,124.42c-0.761,0.122-1.866,0.416-3.275,0.902c1.298,0.639,2.728,1.065,4.279,1.349
				c0.882,0.172,1.318,0.73,1.318,1.663c0,1.237-0.618,1.835-1.805,1.835c-1.075,0-1.754-0.477-2.089-1.45
				c-0.122-0.365-0.994-1.136-2.596-2.342c0.243,1.126,0.507,2.809,0.791,5.019c0,0.487-0.193,0.882-0.487,1.257
				c-0.304,0.385-0.689,0.568-1.176,0.568c-0.994,0-1.592-0.507-1.815-1.45c-0.192-0.801-0.051-1.501,0.406-1.998
				c0.284-0.345,0.548-1.47,0.821-3.397c-1.318,0.811-2.454,1.856-3.458,3.103c-0.304,0.345-0.73,0.507-1.288,0.507
				c-1.176,0-1.734-0.618-1.734-1.866c0-0.578,0.243-1.065,0.801-1.46c0.537-0.385,1.116-0.547,1.734-0.436
				c0.375,0.051,1.45-0.324,3.275-1.085c-1.339-0.72-2.819-1.247-4.411-1.531c-0.852-0.183-1.308-0.73-1.308-1.704
				c0-0.466,0.193-0.902,0.537-1.278c0.334-0.335,0.75-0.527,1.257-0.527c1.044,0,1.734,0.487,2.099,1.46
				c0.101,0.223,0.933,1.034,2.555,2.332c-0.061-0.7-0.203-1.551-0.446-2.525c-0.334-1.45-0.527-2.393-0.527-2.768
				c0-0.507,0.193-0.923,0.578-1.247c0.355-0.304,0.801-0.466,1.247-0.466c1.197,0,1.795,0.69,1.795,2.038
				c0,0.558-0.152,1.014-0.446,1.369c-0.294,0.335-0.558,1.612-0.74,3.802c1.288-0.7,2.525-1.703,3.65-3.022
				c0.345-0.304,0.761-0.446,1.267-0.446c1.166,0,1.734,0.588,1.734,1.805C29.107,123.568,28.266,124.227,26.562,124.42"/>
		</g>
	</g>
</g>
</svg>
